<?xml version="1.0" encoding="utf-8"?>
<!-- Generator: Adobe Illustrator 16.0.0, SVG Export Plug-In . SVG Version: 6.00 Build 0)  -->
<!DOCTYPE svg PUBLIC "-//W3C//DTD SVG 1.1//EN" "http://www.w3.org/Graphics/SVG/1.1/DTD/svg11.dtd">
<svg version="1.1" id="Layer_1" xmlns="http://www.w3.org/2000/svg" xmlns:xlink="http://www.w3.org/1999/xlink" x="0px" y="0px"
	 width="130px" height="130px" viewBox="0 0 130 130" enable-background="new 0 0 130 130" xml:space="preserve">
<g>
	<g>
		<path fill="#00A8AB" d="M66.362,103.152c-22.491,0-38.56-9.916-48.081-18.236C7.99,75.926,3.022,66.973,2.817,66.596L2,65.107
			l0.73-1.537c0.181-0.379,4.535-9.383,14.265-18.42c8.992-8.35,24.471-18.303,47.154-18.303c22.501,0,38.442,9.924,47.852,18.248
			c10.172,9.002,15.019,17.963,15.22,18.34L128,64.895l-0.693,1.498c-0.176,0.381-4.408,9.396-14.02,18.441
			C104.406,93.191,89.057,103.152,66.362,103.152z M9.557,64.895c4.171,6.453,22.637,31.617,56.805,31.617
			c34.366,0,50.537-24.975,54.129-31.41c-1.73-2.762-6.047-9.02-13.078-15.195C95.015,39.014,80.458,33.488,64.149,33.488
			C29.83,33.488,13.286,58.393,9.557,64.895z"/>
	</g>
	<g>
		<path fill="#00A8AB" d="M64.917,85.264c-11.291,0-20.477-9.188-20.477-20.479c0-11.293,9.186-20.479,20.477-20.479
			c11.292,0,20.478,9.186,20.478,20.479C85.395,76.076,76.209,85.264,64.917,85.264z M64.917,50.949
			c-7.628,0-13.836,6.205-13.836,13.836c0,7.629,6.208,13.836,13.836,13.836c7.63,0,13.838-6.207,13.838-13.836
			C78.754,57.154,72.546,50.949,64.917,50.949z"/>
	</g>
</g>
</svg>
